<svg xmlns="http://www.w3.org/2000/svg" xmlns:xlink="http://www.w3.org/1999/xlink" width="48" height="48" viewBox="0 0 48 48">
  <defs>
    <style>
      .cls-1, .cls-3 {
        fill: #fff;
      }

      .cls-1 {
        stroke: #707070;
      }

      .cls-2 {
        clip-path: url(#clip-path);
      }
    </style>
    <clipPath id="clip-path">
      <rect id="矩形_14435" data-name="矩形 14435" class="cls-1" width="48" height="48" transform="translate(1708.5 1080)"/>
    </clipPath>
  </defs>
  <g id="蒙版组_481" data-name="蒙版组 481" class="cls-2" transform="translate(-1708.5 -1080)">
    <g id="编组_41" data-name="编组 41" transform="translate(1712.5 1084)">
      <path id="矩形" d="M8,0H34a8,8,0,0,1,8,8V34a8,8,0,0,1-8,8H8a8,8,0,0,1-8-8V8A8,8,0,0,1,8,0Z" transform="translate(-1 -1)"/>
      <path id="Hz" class="cls-3" d="M-8.028-1.728A1.8,1.8,0,0,0-6.3-2.976l1.716,1.008a2.806,2.806,0,0,1-.66,1.062,3.378,3.378,0,0,1-1.17.774A4.09,4.09,0,0,1-7.98.156a4.29,4.29,0,0,1-2.172-.564,4.09,4.09,0,0,1-1.56-1.6A4.852,4.852,0,0,1-12.288-4.4a4.818,4.818,0,0,1,.576-2.388,4.1,4.1,0,0,1,1.56-1.6A4.29,4.29,0,0,1-7.98-8.952a4.09,4.09,0,0,1,1.566.288,3.378,3.378,0,0,1,1.17.774,2.806,2.806,0,0,1,.66,1.062L-6.3-5.82A1.8,1.8,0,0,0-8.028-7.068,1.864,1.864,0,0,0-9.09-6.75a2.191,2.191,0,0,0-.756.924A3.341,3.341,0,0,0-10.128-4.4a3.382,3.382,0,0,0,.282,1.428,2.185,2.185,0,0,0,.756.93A1.864,1.864,0,0,0-8.028-1.728ZM-.36-8.784a4.658,4.658,0,0,1,1.92.366A2.836,2.836,0,0,1,2.814-7.38a2.814,2.814,0,0,1,.438,1.572,2.814,2.814,0,0,1-.438,1.572A2.836,2.836,0,0,1,1.56-3.2a4.658,4.658,0,0,1-1.92.366H-1.488V0H-3.54V-8.784ZM-.588-4.56A2.284,2.284,0,0,0,.624-4.848a1.038,1.038,0,0,0,.468-.96,1.037,1.037,0,0,0-.474-.954A2.254,2.254,0,0,0-.588-7.056h-.9v2.5ZM9.924-8.784h2.052v5.232a4.02,4.02,0,0,1-.462,1.968,3.119,3.119,0,0,1-1.332,1.29,4.452,4.452,0,0,1-2.07.45,4.452,4.452,0,0,1-2.07-.45A3.119,3.119,0,0,1,4.71-1.584a4.02,4.02,0,0,1-.462-1.968V-8.784H6.3v4.692a2.783,2.783,0,0,0,.48,1.8,1.639,1.639,0,0,0,1.332.576,1.639,1.639,0,0,0,1.332-.576,2.783,2.783,0,0,0,.48-1.8Z" transform="translate(20 25)"/>
    </g>
  </g>
</svg>
