<svg id="组_1" data-name="组 1" xmlns="http://www.w3.org/2000/svg" width="650" height="95" viewBox="0 0 650 95">
  <path id="矩形_36" data-name="矩形 36" d="M0,0H650V95H0Z" fill="#0078d4"/>
  <g id="组_28" data-name="组 28">
    <line id="直线_8" data-name="直线 8" y2="44" transform="translate(246.985 25.5)" fill="none" stroke="#fff" stroke-miterlimit="10" stroke-width="2"/>
    <g id="组_26" data-name="组 26">
      <path id="矩形_37" data-name="矩形 37" d="M0,0H18.235V18.235H0Z" transform="translate(28.515 28.316)" fill="#fff"/>
      <path id="矩形_38" data-name="矩形 38" d="M0,0H18.235V18.235H0Z" transform="translate(48.647 28.316)" fill="#fff"/>
      <path id="矩形_39" data-name="矩形 39" d="M0,0H18.235V18.235H0Z" transform="translate(28.515 48.449)" fill="#fff"/>
      <path id="矩形_40" data-name="矩形 40" d="M0,0H18.235V18.235H0Z" transform="translate(48.647 48.449)" fill="#fff"/>
    </g>
    <g id="组_27" data-name="组 27">
      <path id="路径_53" data-name="路径 53" d="M105.7,35.987h4.174L103.6,59.009H98.928l-4.623-17.37h-.1l-4.624,17.37H84.817L78.395,35.987h4.367l4.479,18.206h.1L92.35,35.987h4.271l4.671,18.174h.1Z" fill="#fff"/>
      <path id="路径_54" data-name="路径 54" d="M111.178,37.737a2.113,2.113,0,0,1,.7-1.613,2.351,2.351,0,0,1,1.661-.65,2.323,2.323,0,0,1,1.7.666,2.164,2.164,0,0,1,.674,1.6,2.084,2.084,0,0,1-.69,1.59,2.384,2.384,0,0,1-1.686.642,2.343,2.343,0,0,1-1.678-.65,2.107,2.107,0,0,1-.681-1.585Zm4.287,4.768v16.5h-3.886v-16.5Z" fill="#fff"/>
      <path id="路径_55" data-name="路径 55" d="M134.024,48.911v10.1h-3.885V49.794a6,6,0,0,0-.763-3.371,2.759,2.759,0,0,0-2.448-1.108,3.418,3.418,0,0,0-2.705,1.236,4.6,4.6,0,0,0-1.068,3.115v9.343H119.27v-16.5h3.885v2.184h.064a5.849,5.849,0,0,1,2.248-1.9,7.106,7.106,0,0,1,3.082-.634A5.019,5.019,0,0,1,132.6,43.83a7.717,7.717,0,0,1,1.424,5.081Z" fill="#fff"/>
      <path id="路径_56" data-name="路径 56" d="M149.005,34.671h3.885V59.009h-3.885V56.826h-.065a5.46,5.46,0,0,1-2.223,1.822,7.594,7.594,0,0,1-3.139.6,6.221,6.221,0,0,1-4.96-2.135,8.758,8.758,0,0,1-1.847-5.924,9.934,9.934,0,0,1,2.047-6.558,6.763,6.763,0,0,1,5.483-2.465,6.872,6.872,0,0,1,2.745.514,4.474,4.474,0,0,1,1.894,1.493H149ZM144.9,56.264a3.724,3.724,0,0,0,2.954-1.4,5.428,5.428,0,0,0,1.188-3.644V49.457a4.142,4.142,0,0,0-1.132-2.93,3.99,3.99,0,0,0-5.989.3,7.022,7.022,0,0,0-1.115,4.238,5.978,5.978,0,0,0,1.1,3.83,3.631,3.631,0,0,0,2.994,1.369Z" fill="#fff"/>
      <path id="路径_57" data-name="路径 57" d="M155.573,51a8.937,8.937,0,0,1,2.313-6.486,8.512,8.512,0,0,1,6.421-2.392,7.914,7.914,0,0,1,6.045,2.3,8.694,8.694,0,0,1,2.175,6.221,8.772,8.772,0,0,1-2.312,6.39,8.374,8.374,0,0,1-6.293,2.376,8.232,8.232,0,0,1-6.093-2.256A8.318,8.318,0,0,1,155.573,51Zm4.046-.128a5.892,5.892,0,0,0,1.173,3.949,4.179,4.179,0,0,0,3.355,1.365,3.915,3.915,0,0,0,3.227-1.365,6.31,6.31,0,0,0,1.108-4.045,6.1,6.1,0,0,0-1.148-4.022,3.991,3.991,0,0,0-3.22-1.357,4.072,4.072,0,0,0-3.315,1.421,6.183,6.183,0,0,0-1.18,4.052Z" fill="#fff"/>
      <path id="路径_58" data-name="路径 58" d="M194.107,42.505h3.724l-4.816,16.5h-4.126l-3.259-11.96h-.065l-3.419,11.96h-4.078l-4.8-16.5h4.03l3.066,12.651h.1l3.612-12.651h3.709l3.259,12.7h.1Z" fill="#fff"/>
      <path id="路径_59" data-name="路径 59" d="M202.746,46.84a1.667,1.667,0,0,0,.53,1.309,9.058,9.058,0,0,0,2.344,1.2,7.95,7.95,0,0,1,3.267,2.1,4.344,4.344,0,0,1,.939,2.817A4.531,4.531,0,0,1,208.036,58a7.6,7.6,0,0,1-4.84,1.413,11.657,11.657,0,0,1-2.272-.249,10.139,10.139,0,0,1-2.111-.634V54.707a9.571,9.571,0,0,0,2.28,1.172,6.676,6.676,0,0,0,2.215.433,3.954,3.954,0,0,0,1.943-.369,1.32,1.32,0,0,0,.626-1.236,1.72,1.72,0,0,0-.65-1.357,9.667,9.667,0,0,0-2.465-1.276,7.606,7.606,0,0,1-3.05-2.023,4.433,4.433,0,0,1-.9-2.858,4.515,4.515,0,0,1,1.774-3.668,7.074,7.074,0,0,1,4.6-1.437,11.071,11.071,0,0,1,1.943.193,8.565,8.565,0,0,1,1.8.5v3.693a8.25,8.25,0,0,0-1.8-.883,6,6,0,0,0-2.039-.369,2.97,2.97,0,0,0-1.726.433,1.375,1.375,0,0,0-.618,1.185Z" fill="#fff"/>
    </g>
  </g>
  <path id="路径_60" data-name="路径 60" d="M19.688,32.469a14.888,14.888,0,0,1-7.5,1.922,10.992,10.992,0,0,1-5.6-1.422A9.564,9.564,0,0,1,2.8,28.953a12.67,12.67,0,0,1-1.328-5.859,11.717,11.717,0,0,1,3.266-8.516A11.152,11.152,0,0,1,13.1,11.219a14.186,14.186,0,0,1,6.141,1.188v2.906A11.712,11.712,0,0,0,12.8,13.578a8.4,8.4,0,0,0-4.414,1.18A8.087,8.087,0,0,0,5.32,18.094a10.389,10.389,0,0,0-1.1,4.8,9.548,9.548,0,0,0,2.227,6.68,7.8,7.8,0,0,0,6.07,2.445,9.311,9.311,0,0,0,4.547-1.062V24.688H12.156V22.313h7.531Zm17.274-5.828h-11.3a5.961,5.961,0,0,0,1.43,4.133,4.994,4.994,0,0,0,3.789,1.43,7.843,7.843,0,0,0,4.953-1.75v2.391a9.146,9.146,0,0,1-5.562,1.547A6.706,6.706,0,0,1,24.93,32.18a9.017,9.017,0,0,1-1.922-6.117,9.719,9.719,0,0,1,.961-4.336,7.342,7.342,0,0,1,2.648-3.039,6.821,6.821,0,0,1,3.75-1.078,6.06,6.06,0,0,1,4.852,2.023A8.412,8.412,0,0,1,36.961,25.3Zm-2.625-2.172a5.3,5.3,0,0,0-1.07-3.445,3.629,3.629,0,0,0-2.93-1.227,4.128,4.128,0,0,0-3.047,1.281,5.983,5.983,0,0,0-1.59,3.391Zm13.477,9.375a4.908,4.908,0,0,1-2.406.516q-4.188,0-4.187-4.719V20.172h-2.75V18h2.75V14.094l2.563-.828V18h4.031v2.172H43.782V29.2a3.7,3.7,0,0,0,.547,2.289,2.216,2.216,0,0,0,1.828.68,2.724,2.724,0,0,0,1.656-.516Zm17.657,0a4.908,4.908,0,0,1-2.406.516q-4.188,0-4.187-4.719V20.172h-2.75V18h2.75V14.094l2.563-.828V18H65.47v2.172H61.439V29.2a3.7,3.7,0,0,0,.547,2.289,2.216,2.216,0,0,0,1.828.68,2.725,2.725,0,0,0,1.656-.516ZM83.1,25.938a8.63,8.63,0,0,1-2.164,6.133,7.557,7.557,0,0,1-5.8,2.32,7.4,7.4,0,0,1-5.664-2.258,8.339,8.339,0,0,1-2.117-5.945,8.778,8.778,0,0,1,2.172-6.273,7.826,7.826,0,0,1,5.984-2.3,7.143,7.143,0,0,1,5.578,2.227,8.755,8.755,0,0,1,2.011,6.1Zm-2.625.094a7.065,7.065,0,0,0-1.336-4.625,4.685,4.685,0,0,0-3.82-1.609,4.916,4.916,0,0,0-3.906,1.648,6.85,6.85,0,0,0-1.437,4.648,6.5,6.5,0,0,0,1.445,4.492,4.967,4.967,0,0,0,3.9,1.617,4.7,4.7,0,0,0,3.828-1.594,6.974,6.974,0,0,0,1.329-4.578ZM107.166,34h-3.594L96.51,26.313h-.062V34H93.885V10.313h2.563V25.328h.063L103.229,18h3.359l-7.422,7.719Zm15.586,0H120.19V24.875q0-5.078-3.719-5.078a4.066,4.066,0,0,0-3.164,1.43,5.28,5.28,0,0,0-1.273,3.648V34h-2.562V18h2.563v2.656h.063a5.747,5.747,0,0,1,5.25-3.047,4.86,4.86,0,0,1,4.023,1.719,7.6,7.6,0,0,1,1.383,4.875Zm19.039-8.062a8.63,8.63,0,0,1-2.164,6.133,7.557,7.557,0,0,1-5.8,2.32,7.4,7.4,0,0,1-5.664-2.258,8.34,8.34,0,0,1-2.117-5.945,8.778,8.778,0,0,1,2.172-6.273,7.826,7.826,0,0,1,5.984-2.3,7.143,7.143,0,0,1,5.578,2.227,8.755,8.755,0,0,1,2.012,6.1Zm-2.625.094a7.065,7.065,0,0,0-1.336-4.625,4.685,4.685,0,0,0-3.82-1.609,4.916,4.916,0,0,0-3.906,1.648,6.85,6.85,0,0,0-1.437,4.648,6.5,6.5,0,0,0,1.445,4.492,4.967,4.967,0,0,0,3.9,1.617,4.7,4.7,0,0,0,3.828-1.594,6.974,6.974,0,0,0,1.327-4.578ZM165.6,18l-4.8,16h-2.656l-3.3-11.453a7.907,7.907,0,0,1-.25-1.469h-.062a7.049,7.049,0,0,1-.328,1.438L150.628,34h-2.562l-4.828-16h2.688l3.3,12.031a8.729,8.729,0,0,1,.219,1.438h.125a6.4,6.4,0,0,1,.3-1.469l3.672-12h2.344l3.328,12.063a8.391,8.391,0,0,1,.219,1.438h.125a5.47,5.47,0,0,1,.25-1.437L163.066,18Zm31.81,16h-4.391L188.8,18.391a12.114,12.114,0,0,1-.359-2.375h-.062a12.059,12.059,0,0,1-.164,1.32q-.133.773-.211,1.055L183.816,34h-4.453l-6.312-22.406h4.063l4.172,16.234a12.847,12.847,0,0,1,.313,2.422h.094a16.111,16.111,0,0,1,.422-2.453l4.516-16.2H190.6l4.281,16.391a12.654,12.654,0,0,1,.359,2.234h.063a16.119,16.119,0,0,1,.313-2.328l4.031-16.3h3.906Zm12.617-21.656a1.929,1.929,0,0,1-.648,1.484,2.242,2.242,0,0,1-1.57.594,2.214,2.214,0,0,1-1.562-.594,1.94,1.94,0,0,1-.641-1.484,2,2,0,0,1,.648-1.516,2.19,2.19,0,0,1,1.555-.609,2.165,2.165,0,0,1,1.586.625,2.033,2.033,0,0,1,.632,1.5ZM205.965,34V18h3.609V34Zm18.789,0V25.016A5.963,5.963,0,0,0,224,21.664a2.755,2.755,0,0,0-2.445-1.1A3.424,3.424,0,0,0,218.84,21.8a4.583,4.583,0,0,0-1.07,3.1V34h-3.609V18h3.609v2.563h.063a5.73,5.73,0,0,1,5.188-2.953,4.924,4.924,0,0,1,3.945,1.625,7.419,7.419,0,0,1,1.4,4.938V34Zm18.555,0V31.5h-.062A5.7,5.7,0,0,1,238,34.391a5.961,5.961,0,0,1-4.828-2.156,8.846,8.846,0,0,1-1.8-5.844,9.67,9.67,0,0,1,1.992-6.383,6.582,6.582,0,0,1,5.336-2.4,5.741,5.741,0,0,1,2.688.609,4.594,4.594,0,0,1,1.859,1.766h.063v-9.67h3.609V34Zm.031-9.344a4.067,4.067,0,0,0-1.133-2.891,3.985,3.985,0,0,0-5.969.3,6.948,6.948,0,0,0-1.117,4.219,5.883,5.883,0,0,0,1.1,3.789,3.638,3.638,0,0,0,2.992,1.367,3.721,3.721,0,0,0,2.938-1.383,5.334,5.334,0,0,0,1.188-3.6Zm23.46,1.188a8.569,8.569,0,0,1-2.25,6.219,8.1,8.1,0,0,1-6.109,2.328,7.939,7.939,0,0,1-5.9-2.211,8.13,8.13,0,0,1-2.2-5.992,8.589,8.589,0,0,1,2.25-6.281,8.327,8.327,0,0,1,6.234-2.3,7.743,7.743,0,0,1,5.859,2.2,8.354,8.354,0,0,1,2.116,6.037Zm-3.75.125a6.035,6.035,0,0,0-1.18-4.031,4.046,4.046,0,0,0-3.242-1.375A4.1,4.1,0,0,0,255.3,22a6.157,6.157,0,0,0-1.2,4.063,5.93,5.93,0,0,0,1.2,3.961,4.172,4.172,0,0,0,3.359,1.414,3.946,3.946,0,0,0,3.281-1.391,6.429,6.429,0,0,0,1.112-4.078ZM287.091,34h-3.844L280.31,23.375a5.155,5.155,0,0,1-.164-.867q-.055-.492-.1-.789h-.062a10.254,10.254,0,0,1-.312,1.625L276.529,34h-3.781l-4.7-16h3.75l2.844,11.3a9.33,9.33,0,0,1,.234,1.563h.094a7.518,7.518,0,0,1,.281-1.625L278.544,18H282l3.016,11.328a15.5,15.5,0,0,1,.219,1.594h.094a10.185,10.185,0,0,1,.266-1.594L288.31,18h3.484Zm16.664-4.578a4.378,4.378,0,0,1-1.719,3.6,7.277,7.277,0,0,1-4.656,1.367,10.828,10.828,0,0,1-2.164-.25,9.429,9.429,0,0,1-2.023-.625V30.063a8.016,8.016,0,0,0,2.188,1.109,6.928,6.928,0,0,0,2.141.391q2.594,0,2.594-1.719a1.668,1.668,0,0,0-.258-.977,2.78,2.78,0,0,0-.891-.734,17.42,17.42,0,0,0-1.961-.914,9.9,9.9,0,0,1-2.32-1.3,3.916,3.916,0,0,1-1.125-1.469,4.9,4.9,0,0,1-.367-1.969,4.293,4.293,0,0,1,1.7-3.516,6.847,6.847,0,0,1,4.406-1.359,10.461,10.461,0,0,1,1.883.2,8.254,8.254,0,0,1,1.711.477v3.266a6.351,6.351,0,0,0-1.734-.8,6.781,6.781,0,0,0-1.984-.3,2.713,2.713,0,0,0-1.7.484,1.5,1.5,0,0,0-.625,1.234,1.752,1.752,0,0,0,.492,1.32,8.3,8.3,0,0,0,2.32,1.211,7.96,7.96,0,0,1,3.172,2.016,4.112,4.112,0,0,1,.921,2.708ZM321.24,11.094V34h-3.625V15.531a14.1,14.1,0,0,1-4.7,2.063V14.5a26.18,26.18,0,0,0,3.7-1.508,24.8,24.8,0,0,0,3.1-1.9Zm12.555,0V34H330.17V15.531a14.1,14.1,0,0,1-4.7,2.063V14.5a26.18,26.18,0,0,0,3.7-1.508,24.8,24.8,0,0,0,3.1-1.9Z" transform="translate(277 25.032)" fill="#fff"/>
</svg>
